<?xml version="1.0" encoding="UTF-8"?>
<svg id="Layer_2" data-name="Layer 2" xmlns="http://www.w3.org/2000/svg" viewBox="0 0 192.48 187.32">
  <defs>
    <style>
      .cls-1 {
        fill: #24242e;
      }

      .cls-2 {
        stroke: #fff;
      }

      .cls-2, .cls-3 {
        fill: none;
        stroke-miterlimit: 10;
        stroke-width: 4px;
      }

      .cls-3 {
        stroke: #ecb246;
      }
    </style>
  </defs>
  <g id="Layer_1-2" data-name="Layer 1">
    <g>
      <rect class="cls-1" width="192.48" height="187.32" rx="41" ry="41"/>
      <g>
        <g>
          <path class="cls-3" d="M97.32,135.77c1.32,0,2.41,1.09,2.41,2.42s-1.09,2.41-2.41,2.41-2.42-1.08-2.42-2.41,1.08-2.42,2.42-2.42Z"/>
          <path class="cls-3" d="M66.72,54.09h62.64v13.18h-3.93c-1.02,0-1.86.84-1.86,1.86v3.37c-2.47.55-4.79,1.56-6.82,2.9l-2.43-2.43c-.73-.72-1.93-.72-2.65,0l-3.67,3.67c-.72.73-.72,1.91,0,2.65l2.55,2.54c-1.24,2.03-2.14,4.3-2.62,6.7h-3.76c-1.03,0-1.86.85-1.86,1.89v5.16c0,1.04.84,1.89,1.86,1.89h3.99c.56,2.28,1.51,4.4,2.78,6.32l-2.94,2.93c-.72.73-.72,1.92,0,2.65l3.67,3.67c.72.72,1.91.72,2.65,0l3.05-3.04c1.87,1.14,3.98,2.01,6.21,2.5v4.37c0,1.02.84,1.86,1.86,1.86h3.93v13.21l-32.05.1-30.59.11V54.09Z"/>
          <path class="cls-3" d="M129.36,54.09h-62.64v-6.21c0-4.08,3.14-7.22,7.24-7.22h48.17c4.11,0,7.23,3.14,7.23,7.22v6.21Z"/>
        </g>
        <g>
          <path class="cls-3" d="M129.36,67.16v-19.27c0-4.08-3.12-7.22-7.23-7.22h-48.17c-4.1,0-7.24,3.14-7.24,7.22v91.56c0,4.1,3.14,7.22,7.24,7.22h48.17c4.11,0,7.23-3.13,7.23-7.22v-20.65"/>
          <path class="cls-3" d="M97.32,140.6c1.32,0,2.41-1.08,2.41-2.41s-1.09-2.42-2.41-2.42-2.42,1.09-2.42,2.42,1.08,2.41,2.42,2.41Z"/>
          <line class="cls-3" x1="88.23" y1="47.88" x2="107.86" y2="47.88"/>
          <line class="cls-3" x1="66.72" y1="54.09" x2="129.36" y2="54.09"/>
          <polyline class="cls-3" points="66.72 132.14 97.31 132.03 129.36 131.93"/>
          <path class="cls-2" d="M129.36,67.27h1.25c1.02,0,1.88.84,1.88,1.86v3.37c2.46.55,4.76,1.56,6.82,2.9l2.42-2.43c.73-.72,1.92-.72,2.65,0l3.67,3.67c.72.73.72,1.91,0,2.65l-2.55,2.54c1.25,2.03,2.14,4.3,2.62,6.7h3.75c1.04,0,1.89.85,1.89,1.89v5.16c0,1.04-.85,1.89-1.89,1.89h-3.98c-.57,2.28-1.51,4.4-2.78,6.32l2.94,2.93c.72.73.72,1.92,0,2.65l-3.67,3.67c-.73.72-1.91.72-2.65,0l-3.05-3.04c-1.87,1.14-3.98,2.01-6.2,2.5v4.37c0,1.02-.86,1.86-1.88,1.86h-5.19c-1.02,0-1.86-.84-1.86-1.86v-4.37c-2.23-.49-4.33-1.36-6.21-2.5l-3.05,3.04c-.73.72-1.93.72-2.65,0l-3.67-3.67c-.72-.73-.72-1.91,0-2.65l2.94-2.93c-1.27-1.91-2.22-4.04-2.78-6.32h-3.99c-1.03,0-1.86-.85-1.86-1.89v-5.16c0-1.03.84-1.89,1.86-1.89h3.76c.48-2.41,1.38-4.67,2.62-6.7l-2.55-2.54c-.72-.73-.72-1.92,0-2.65l3.67-3.67c.72-.72,1.91-.72,2.65,0l2.43,2.43c2.03-1.34,4.35-2.35,6.82-2.9v-3.37c0-1.02.84-1.86,1.86-1.86h3.96Z"/>
          <path class="cls-2" d="M129.36,103.29c-.44.07-.89.09-1.34.09-5.73,0-10.39-4.65-10.39-10.39s4.65-10.39,10.39-10.39c.45,0,.9.03,1.34.09,5.1.65,9.03,5.01,9.03,10.29s-3.94,9.64-9.03,10.29v.02Z"/>
          <line class="cls-3" x1="75.59" y1="93.92" x2="75.59" y2="115.53"/>
          <line class="cls-3" x1="82.31" y1="102.52" x2="82.31" y2="115.53"/>
          <line class="cls-3" x1="89.04" y1="97.4" x2="89.04" y2="115.53"/>
          <line class="cls-3" x1="95.77" y1="106.96" x2="95.77" y2="115.53"/>
        </g>
      </g>
    </g>
  </g>
</svg>