<?xml version="1.0" encoding="UTF-8"?>
<svg id="Layer_2" data-name="Layer 2" xmlns="http://www.w3.org/2000/svg" viewBox="0 0 192.48 187.32">
  <defs>
    <style>
      .cls-1 {
        fill: #24242e;
      }

      .cls-2 {
        fill: #fff;
      }

      .cls-3, .cls-4 {
        fill: none;
        stroke: #ecb246;
        stroke-miterlimit: 10;
      }

      .cls-5 {
        fill: #ecb246;
      }

      .cls-4 {
        stroke-width: 2px;
      }
    </style>
  </defs>
  <g id="Layer_1-2" data-name="Layer 1">
    <g>
      <rect class="cls-1" width="192.48" height="187.32" rx="41" ry="41"/>
      <g>
        <polygon class="cls-5" points="83.93 116.37 108.68 116.37 108.12 111.11 108.2 108.3 108.68 105.24 109.47 101.6 111.39 96.89 113.47 93.6 115.56 91.22 118.34 88.98 121.85 87.29 120.61 86.39 116.77 83.26 113.05 79.41 110.47 75.6 108 71.57 104.88 64.63 102.89 58.8 101.4 54.2 100.14 49.13 99.34 45.1 98.93 41.24 95.8 41.24 96.47 75.6 97.32 76.3 99.55 77.51 101.36 79.92 101.7 83.42 100.74 86.18 98.7 88.23 96.03 89.02 93.08 88.49 90.83 86.66 89.47 83.6 89.88 80.46 91.15 77.83 92.64 76.52 94.47 75.93 94.73 41.24 91.85 41.24 91.02 51.01 89.47 57.6 86.96 65.97 83.17 74.1 79.77 79.06 77.29 81.81 71.47 86.6 70.89 87.44 74.44 89.24 77.94 92.37 80.47 95.6 82.36 99.81 83.75 104.61 84.47 110.6 83.93 116.37"/>
        <path class="cls-3" d="M118.17,66.67l7.23-7.92c.38-.41,1.01-.44,1.42-.07s.44,1.01.06,1.42l-7.23,7.92c-.37.41-1.01.44-1.42.07s-.44-1.01-.07-1.42h.01ZM67.35,58.68c.41-.37,1.04-.35,1.42.07l7.22,7.92c.38.41.35,1.05-.07,1.42-.41.37-1.05.35-1.42-.07l-7.23-7.92c-.37-.41-.34-1.05.07-1.42h.01ZM57.18,76.85c.11-.54.65-.89,1.19-.78l10.5,2.17c.54.11.89.64.78,1.19s-.64.89-1.19.78l-10.5-2.17c-.54-.11-.89-.64-.78-1.19ZM70.75,94.13l-10.48,2.28c-.54.12-1.08-.23-1.2-.77-.12-.54.23-1.08.77-1.2l10.48-2.28c.54-.12,1.08.23,1.2.77.12.54-.23,1.08-.77,1.2ZM108.11,110.67c0,1.76.15,2.84.43,5.69h-24.61c.28-2.85.43-3.82.43-5.58,0-11.17-5.85-20.84-13.73-23.44,3.2-2.27,8.95-6.57,12.84-13.78,8.54-15.8,8.54-32.32,8.54-32.32h2.72l-.25,34.69c-4.6.56-4.93,6.34-4.93,6.34-.1,3.76,2.35,6.75,6.11,6.75s6.13-3.07,6.13-6.83c0-3.19-2.23-5.32-4.99-6.05l-1-34.9h2.96s1.7,16.45,10.24,32.25c3.89,7.21,9.64,11.52,12.84,13.8-7.89,2.59-13.73,12.22-13.73,23.39h0ZM134.42,95.64c-.12.54-.65.89-1.2.77l-10.48-2.28c-.54-.12-.89-.65-.77-1.2.12-.54.65-.89,1.2-.77l10.48,2.28c.54.12.89.65.77,1.2ZM134.5,78.03l-10.5,2.17c-.54.11-1.08-.24-1.19-.78-.11-.54.24-1.08.78-1.19l10.5-2.17c.54-.11,1.08.24,1.19.78.11.54-.24,1.07-.78,1.19Z"/>
        <path class="cls-4" d="M96.23,26.72c-27.04,0-48.95,21.88-48.95,48.88,0,21.59,14.28,35.93,33.47,46.54,1.81,1,0,8.46,0,8.46h31.4s-1.88-7.66,0-8.61c17.65-8.92,33.04-24.88,33.04-46.31,0-26.99-21.92-48.96-48.95-48.96h0Z"/>
        <path class="cls-2" d="M96.03,160.6c6.57,0,11.9-5.25,11.9-11.9h-23.81c0,6.66,5.33,11.9,11.9,11.9h.01Z"/>
        <path class="cls-5" d="M82.28,135.39h27.18c1.42,0,2.58,1.16,2.58,2.58v.55c0,1.42-1.16,2.58-2.58,2.58h-27.18c-1.42,0-2.58-1.16-2.58-2.58v-.55c0-1.42,1.16-2.58,2.58-2.58Z"/>
        <path class="cls-2" d="M111.08,145.93c0,1.43-.79,2.77-2.21,2.77h-27.06c-1.42,0-2.11-1.34-2.11-2.77v-.36c0-1.42.69-2.58,2.11-2.58h27.06c1.42,0,2.21,1.15,2.21,2.58v.36Z"/>
      </g>
    </g>
  </g>
</svg>