<?xml version="1.0" encoding="UTF-8"?>
<svg id="Layer_2" data-name="Layer 2" xmlns="http://www.w3.org/2000/svg" viewBox="0 0 192.48 187.32">
  <defs>
    <style>
      .cls-1 {
        fill: #24242e;
      }

      .cls-2 {
        fill: #fff;
      }

      .cls-3 {
        fill: #ecb246;
      }
    </style>
  </defs>
  <g id="Layer_1-2" data-name="Layer 1">
    <g>
      <rect class="cls-1" width="192.48" height="187.32" rx="41" ry="41"/>
      <g>
        <path class="cls-3" d="M96.06,148.66c-28.6,0-51.87-23.26-51.87-51.85s23.27-51.87,51.87-51.87c12.69,0,24.92,4.65,34.44,13.09.41.37.45,1,.08,1.42-.37.41-1,.45-1.42.08-9.15-8.12-20.91-12.59-33.11-12.59-27.49,0-49.86,22.37-49.86,49.86s22.37,49.84,49.86,49.84,49.84-22.36,49.84-49.84c0-12-4.31-23.57-12.15-32.63-.19-.05-.36-.16-.49-.32-.36-.42-.3-1.06.12-1.41l.12-.1c.42-.35,1.03-.3,1.4.1,8.39,9.49,13.01,21.69,13.01,34.37,0,28.59-23.26,51.85-51.85,51.85h0Z"/>
        <path class="cls-2" d="M150.94,56.27h0c-.66,0-1.32-.09-1.97-.28l-9.09-2.2c-.36-.09-.65-.37-.74-.74l-2.2-9.12c-.7-2.45-.02-5.05,1.84-6.9l10.07-10.07c.26-.25.63-.36.98-.26s.62.37.7.72l2.99,12,11.99,2.99c.35.09.63.36.72.71.1.35,0,.72-.26.98l-10.07,10.07c-1.35,1.35-3.12,2.1-4.98,2.1h.02ZM140.95,51.98l8.53,2.07c.51.14.98.21,1.46.21h0c1.32,0,2.58-.54,3.56-1.51l8.82-8.82-10.86-2.71c-.36-.09-.64-.37-.73-.73l-2.71-10.86-8.82,8.82c-1.35,1.35-1.83,3.17-1.32,4.97l2.07,8.56h0Z"/>
        <path class="cls-3" d="M96.06,139.25c-23.41,0-42.46-19.04-42.46-42.44s19.05-42.46,42.46-42.46c10.15,0,19.97,3.64,27.65,10.24.42.36.47.99.11,1.41s-1,.47-1.41.11c-7.31-6.29-16.66-9.76-26.34-9.76-22.31,0-40.45,18.15-40.45,40.45s18.15,40.43,40.45,40.43,40.44-18.14,40.44-40.43c0-9.6-3.41-18.9-9.61-26.19-.36-.42-.31-1.05.11-1.41s1.05-.31,1.41.11c6.5,7.65,10.09,17.41,10.09,27.49,0,23.4-19.04,42.44-42.44,42.44h-.01Z"/>
        <path class="cls-3" d="M96.06,128.95c-17.72,0-32.14-14.42-32.14-32.14s14.42-32.14,32.14-32.14c7.51,0,14.81,2.65,20.56,7.45.42.36.48.99.13,1.41-.36.42-.99.48-1.41.13-5.39-4.5-12.23-6.98-19.28-6.98-16.62,0-30.14,13.52-30.14,30.14s13.52,30.13,30.14,30.13,30.14-13.52,30.14-30.13c0-7.05-2.48-13.91-7-19.31-.36-.42-.3-1.06.13-1.41.42-.35,1.06-.3,1.41.13,4.81,5.76,7.46,13.08,7.46,20.6,0,17.72-14.42,32.14-32.14,32.14v-.02Z"/>
        <path class="cls-3" d="M96.06,118.39c-11.91,0-21.6-9.68-21.6-21.58s9.69-21.6,21.6-21.6c4.83,0,9.57,1.64,13.34,4.63.43.34.51.97.16,1.41-.34.44-.98.51-1.41.16-3.42-2.7-7.72-4.19-12.1-4.19-10.8,0-19.59,8.79-19.59,19.6s8.79,19.57,19.59,19.57,19.58-8.78,19.58-19.57c0-4.51-1.49-8.75-4.31-12.27-.35-.43-.28-1.06.15-1.41.43-.35,1.06-.28,1.41.15,3.11,3.87,4.75,8.55,4.75,13.52,0,11.9-9.68,21.58-21.58,21.58h0Z"/>
        <path class="cls-2" d="M96.06,97.82c-.28,0-.55-.12-.74-.32-.24-.26-.33-.63-.22-.96.91-3.09,12.81-17.32,43.45-47.96.26-.26.63-.35.98-.26.35.1.62.38.7.73l.71,2.94,2.96.72c.35.09.63.36.73.71s0,.72-.26.98c-25.61,25.61-44.49,42.64-48.11,43.4-.07,0-.14.02-.2.02h0ZM138.71,51.25c-24.07,24.13-35.32,36.88-39.57,42.53,5.93-4.47,19.51-16.54,42.57-39.54l-1.83-.45c-.36-.09-.65-.38-.74-.74l-.43-1.8h0ZM156.22,42.12c-.08,0-.16,0-.24-.03l-3.52-.87c-.36-.09-.64-.37-.73-.73l-.87-3.52c-.08-.34.01-.7.26-.95l4.97-4.97c1.59-1.59,4.22-1.59,5.81,0,1.65,1.65,1.65,4.15,0,5.81l-4.96,4.97c-.19.19-.45.29-.71.29h0ZM153.52,39.42l2.38.59,4.56-4.57c.86-.86.86-2.11,0-2.98-.83-.83-2.14-.83-2.97,0l-4.57,4.57.59,2.38h0Z"/>
        <path class="cls-2" d="M96.06,106.75c-5.49,0-9.96-4.46-9.96-9.94s4.47-9.96,9.96-9.96c2.09,0,4.09.64,5.78,1.85.23.16.37.41.41.69s-.05.56-.22.77c-1.21,1.46-2.13,2.62-2.83,3.55.92-.69,2.08-1.61,3.54-2.82.22-.18.49-.26.77-.22s.52.19.69.41c1.19,1.67,1.82,3.66,1.82,5.74,0,5.48-4.47,9.94-9.96,9.94h0ZM96.06,88.86c-4.39,0-7.95,3.57-7.95,7.96s3.57,7.94,7.95,7.94,7.95-3.56,7.95-7.94c0-1.29-.3-2.54-.88-3.65-5.3,4.31-6.43,4.54-6.86,4.64-.34.07-.7-.04-.94-.3-.24-.26-.33-.62-.23-.96.2-.72.92-2.21,4.65-6.78-1.13-.59-2.39-.9-3.69-.9h0Z"/>
      </g>
    </g>
  </g>
</svg>