<?xml version="1.0" encoding="UTF-8"?>
<svg id="Layer_2" data-name="Layer 2" xmlns="http://www.w3.org/2000/svg" viewBox="0 0 192.48 187.32">
  <defs>
    <style>
      .cls-1 {
        fill: #24242e;
      }

      .cls-2 {
        fill: #fff;
      }

      .cls-3 {
        fill: #ecb246;
      }
    </style>
  </defs>
  <g id="Layer_1-2" data-name="Layer 1">
    <g>
      <rect class="cls-1" width="192.48" height="187.32" rx="41" ry="41"/>
      <path class="cls-3" d="M143.96,42.45H50.39c-9.85,0-17.87,8.02-17.87,17.87v65.72c0,9.85,8.02,17.87,17.87,17.87h93.57c9.85,0,17.87-8.02,17.87-17.87V60.32c0-9.85-8.02-17.87-17.87-17.87h0ZM111.44,51.75h37.51c2.65,0,4.8,2.15,4.8,4.8s-2.15,4.8-4.8,4.8h-37.51c-2.65,0-4.8-2.15-4.8-4.8s2.15-4.8,4.8-4.8ZM92.73,50.23c3.49,0,6.31,2.83,6.31,6.31s-2.83,6.31-6.31,6.31-6.31-2.83-6.31-6.31,2.83-6.31,6.31-6.31ZM72.22,50.23c3.49,0,6.31,2.83,6.31,6.31s-2.83,6.31-6.31,6.31-6.31-2.83-6.31-6.31,2.83-6.31,6.31-6.31ZM51.71,50.23c3.49,0,6.31,2.83,6.31,6.31s-2.83,6.31-6.31,6.31-6.31-2.83-6.31-6.31,2.83-6.31,6.31-6.31ZM159.2,126.04c0,8.4-6.84,15.24-15.24,15.24H50.39c-8.4,0-15.24-6.84-15.24-15.24v-55.39h124.05v55.39h0Z"/>
      <rect class="cls-3" x="43.17" y="81" width="108" height="2"/>
      <rect class="cls-2" x="43" y="92" width="108" height="2"/>
      <rect class="cls-2" x="42.83" y="103" width="108" height="2"/>
    </g>
  </g>
</svg>